<svg width="47" height="36" viewBox="0 0 47 36" fill="none" xmlns="http://www.w3.org/2000/svg">
<path d="M25.1562 35.7188V25.7812H31.7812L23.5 15.8438L15.2188 25.7812H21.8438V35.7188H13.5625V35.6359C13.2843 35.6525 13.0192 35.7188 12.7344 35.7188C9.43989 35.7188 6.28034 34.41 3.95078 32.0805C1.62123 29.7509 0.3125 26.5914 0.3125 23.2969C0.3125 16.9236 5.13219 11.7296 11.3166 11.0174C11.8589 8.18292 13.3719 5.62593 15.5954 3.78627C17.819 1.94661 20.6141 0.939269 23.5 0.9375C26.3863 0.939096 29.1819 1.9463 31.406 3.78593C33.6301 5.62555 35.1438 8.18263 35.6867 11.0174C41.8711 11.7296 46.6842 16.9236 46.6842 23.2969C46.6842 26.5914 45.3755 29.7509 43.0459 32.0805C40.7164 34.41 37.5568 35.7188 34.2623 35.7188C33.9841 35.7188 33.7157 35.6525 33.4342 35.6359V35.7188H25.1562Z" fill="#FF0055"/>
</svg>
